# This file uses centimeters as units for non-parametric coordinates.

g default
v 0.093221 -0.569579 -1.130470
v 0.242029 -0.124958 -1.184170
v -0.315009 -0.671120 -1.073975
v 0.010125 -0.786638 -1.007649
v -0.258522 -0.441696 -1.171099
v 0.661558 0.608617 -1.037795
v -0.574618 -0.318251 -0.938433
v -0.336415 0.260113 -0.939731
v 0.000222 0.139106 -1.182324
v 0.381286 0.753401 -1.072006
v -0.571141 -0.529518 -0.855089
v 0.003260 0.796097 -0.878312
v 0.512735 -0.847344 -0.619835
v 0.674174 -0.314752 -0.646430
v 0.964543 0.056956 -0.471058
v 0.732156 0.804306 -0.645522
v 0.115777 1.022393 -0.762152
v -0.436539 -0.984492 -0.468244
v -0.116717 -1.042074 -0.587358
v -1.016041 0.396871 -0.567834
v 0.460336 0.972461 -0.741783
v 0.392746 -1.006490 -0.512920
v 0.648141 -1.008472 -0.371084
v -0.931563 -0.324193 -0.508708
v -0.986605 0.010640 -0.585770
v 1.067507 0.299167 -0.158353
v -0.342996 1.059069 -0.487122
v -1.044927 0.648705 -0.450355
v -0.555903 0.883028 -0.488820
v 0.525222 1.175212 -0.333733
v -0.141616 1.316616 -0.357745
v 0.070731 1.294695 -0.345951
v 0.836375 1.079220 -0.181094
v -0.283507 -1.121092 0.253683
v 0.547186 -1.105916 -0.240834
v 0.800946 -0.784945 -0.156336
v -1.150072 0.723047 0.175398
v 0.901432 1.308975 0.317298
v -0.763645 -0.727485 -0.300324
v -1.208965 -0.275453 0.408507
v 1.066115 -0.442478 0.089056
v 0.664354 1.456995 0.346035
v 0.586461 -1.004777 0.167124
v 0.794919 -0.661997 0.487293
v -1.122443 0.452571 0.176053
v 0.123868 -1.157522 0.136438
v -1.057462 -0.806089 0.534046
v 1.284842 -0.215314 0.358423
v 1.195937 0.652977 0.334653
v 1.441173 0.145488 0.662213
v 1.250886 0.969491 0.748451
v 0.982512 -0.436080 0.698038
v -0.652598 1.109704 0.244738
v -0.728306 -1.032133 0.385698
v 0.401115 -0.949038 0.919732
v 1.544432 0.227775 1.087632
v -0.155402 1.217541 0.328513
v 0.192750 -0.930816 1.030475
v 1.172382 -0.174337 1.040466
v -1.171334 0.153548 0.270576
v -0.307611 -0.618974 1.026974
v 0.555793 -0.724124 1.172018
v -0.947164 -0.494136 1.030333
v -0.577880 -0.534771 1.031059
v 1.236843 0.003784 1.326791
v -1.023621 0.586282 0.916828
v 0.357500 -0.717433 1.292167
v -0.604329 -0.379219 1.163995
v -1.091772 -0.077048 1.174967
v -1.096534 0.242777 1.160065
v 1.473570 0.309252 1.244775
v -0.566669 0.755997 1.027609
v 0.683904 0.842683 1.132851
v -0.157628 -0.409906 1.318804
v 0.739211 -0.460106 1.493308
v -0.660010 0.037957 1.294932
v 1.184017 0.137367 1.493619
v -0.647180 0.381081 1.332260
v 0.047915 0.310910 1.554334
v 0.512220 -0.374098 1.631491
v -0.068327 0.009446 1.536145
v 0.800450 -0.284965 1.633904
v 0.637372 -0.117921 1.725155
vt 0.895491 0.696362
vt 0.917952 0.684521
vt 0.928374 0.706197
vt 0.894146 0.714112
vt 0.876036 0.662439
vt 0.902113 0.642473
vt 0.930461 0.675031
vt 0.946247 0.699246
vt 0.932661 0.733403
vt 0.898453 0.735556
vt 0.863196 0.718157
vt 0.859164 0.706591
vt 0.848652 0.668447
vt 0.913228 0.632302
vt 0.948929 0.642522
vt 0.973150 0.646133
vt 0.947297 0.731545
vt 0.941086 0.771474
vt 0.921444 0.770624
vt 0.869604 0.734660
vt 0.846828 0.724112
vt 0.839678 0.709537
vt 0.896204 0.622289
vt 0.901090 0.611278
vt 0.978474 0.917295
vt 0.903250 0.773229
vt 0.874266 0.765415
vt 0.862890 0.760750
vt 0.856623 0.737219
vt 0.892364 0.779042
vt 0.847910 0.760309
vt 0.840298 0.753560
vt 0.982291 0.983748
vt 0.922952 0.988120
vt 0.824607 0.670118
vt 0.753496 0.608121
vt 0.810749 0.721929
vt 0.784271 0.677815
vt 0.843425 0.620180
vt 0.816050 0.619295
vt 0.764095 0.571010
vt 0.826111 0.734671
vt 0.776582 0.746509
vt 0.741177 0.792014
vt 0.782444 0.624711
vt 0.875323 0.617674
vt 0.778810 0.525143
vt 0.821005 0.582785
vt 0.847107 0.581539
vt 0.791911 0.757312
vt 0.712891 0.862001
vt 0.787264 0.579771
vt 0.885157 0.585099
vt 0.745748 0.687495
vt 0.828503 0.887614
vt 0.827849 0.529452
vt 0.855202 0.532120
vt 0.726196 0.863620
vt 0.734851 0.895111
vt 0.795210 0.526285
vt 0.912012 0.561448
vt 0.860039 0.872742
vt 0.747891 0.885597
vt 0.778316 0.924771
vt 0.787493 0.908693
vt 0.816915 0.871036
vt 0.851322 0.856594
vt 0.778883 0.826166
vt 0.832513 0.786954
vt 0.845773 0.832896
vt 0.856378 0.795145
vt 0.925860 0.954551
vt 0.980809 0.955798
vt 0.927396 0.920813
vt 0.882982 0.805758
vt 0.857320 0.959790
vt 0.855032 0.977559
vt 0.882522 0.864819
vt 0.872433 0.920690
vt 0.824791 0.966012
vt 0.831333 0.949800
vt 0.895285 0.812739
vt 0.848383 0.911204
vt 0.923099 0.892748
vt 0.880977 0.903749
vt 0.791822 0.942303
vt 0.801325 0.924831
vt 0.872555 0.893954
vt 0.893745 0.883654
vt 0.868981 0.835118
vt 0.874199 0.852977
vt 0.908938 0.825453
vt 0.930474 0.849170
vt 0.973793 0.776003
vt 0.925247 0.579113
vt 0.991517 0.742046
vn 0.420991 -0.137174 -0.896633
vn 0.301660 -0.381783 -0.873638
vn -0.322002 -0.138224 -0.936594
vn -0.206035 0.167400 -0.964120
vn 0.046770 0.534650 -0.843778
vn 0.659568 0.212259 -0.721052
vn 0.070713 -0.762447 -0.643175
vn -0.445385 -0.557519 -0.700574
vn -0.707271 -0.461992 -0.535100
vn -0.665736 -0.101166 -0.739298
vn -0.482737 0.261944 -0.835673
vn -0.340821 0.547067 -0.764564
vn -0.034134 0.778281 -0.626988
vn 0.302102 0.768909 -0.563483
vn 0.747144 0.486376 -0.453006
vn -0.108461 -0.938339 -0.328263
vn -0.476781 -0.800488 -0.363179
vn 0.764935 -0.278045 -0.581004
vn 0.595068 -0.502205 -0.627443
vn 0.862390 -0.138503 -0.486929
vn 0.247375 -0.878951 -0.407738
vn -0.727894 -0.587783 -0.353103
vn -0.846244 -0.253493 -0.468629
vn -0.826237 -0.005497 -0.563296
vn -0.801880 0.111009 -0.587083
vn 0.916712 0.102115 -0.386278
vn 0.119021 -0.992868 -0.006818
vn -0.728216 0.476468 -0.492624
vn -0.506105 0.644454 -0.573180
vn -0.546524 0.634468 -0.546592
vn -0.240232 0.925410 -0.293096
vn 0.078874 0.958869 -0.272671
vn 0.710780 -0.607195 -0.355113
vn 0.430901 -0.884265 -0.179997
vn 0.848436 -0.488950 -0.202692
vn -0.976036 -0.210896 -0.053629
vn -0.997508 0.037602 -0.059690
vn -0.997644 -0.003055 -0.068537
vn -0.883624 0.468006 0.013333
vn 0.357464 0.813633 -0.458498
vn 0.713537 0.555866 -0.426472
vn -0.240196 -0.963908 0.114835
vn -0.482780 0.875688 0.009687
vn -0.166973 0.943332 0.286783
vn -0.510300 -0.841854 0.175716
vn 0.567246 -0.817273 0.101468
vn 0.852321 -0.492530 -0.175964
vn 0.903190 0.240772 -0.355353
vn 0.184195 0.976098 0.115349
vn 0.666904 0.718065 -0.199052
vn -0.613665 -0.704135 0.357225
vn 0.912290 -0.382346 -0.146756
vn 0.668265 -0.728654 0.149948
vn 0.953338 -0.273621 -0.127586
vn 0.708805 -0.687615 0.157417
vn 0.738751 0.641930 0.205363
vn 0.724742 -0.662816 0.188216
vn -0.822451 0.458765 0.336317
vn -0.313731 0.758810 0.570772
vn 0.384971 -0.872522 0.300837
vn 0.979856 -0.126382 0.154625
vn 0.069422 0.714400 0.696286
vn -0.100800 -0.846853 0.522187
vn -0.281455 -0.724150 0.629595
vn 0.476702 -0.786082 0.393484
vn -0.189921 -0.748099 0.635829
vn 0.718309 -0.525348 0.456115
vn -0.804420 0.221602 0.551182
vn 0.665422 0.370833 0.647840
vn -0.070384 -0.712001 0.698642
vn -0.335042 -0.544350 0.769045
vn -0.230023 -0.566221 0.791507
vn -0.461863 -0.552836 0.693581
vn -0.707899 -0.199218 0.677637
vn 0.466297 -0.711819 0.525243
vn -0.303429 -0.187727 0.934178
vn 0.500791 0.127357 0.856147
vn -0.320727 0.334762 0.886041
vn -0.166065 0.299808 0.939435
vn -0.071942 -0.496779 0.864890
vn -0.335102 -0.232931 0.912935
vn 0.510477 -0.507775 0.693958
vn 0.165755 -0.097553 0.981330
s 1
g stonegr3_LP2:stonegr3_LP2
f 2/1/1 1/2/2 5/3/3 9/4/4
f 2/1/1 9/4/4 10/11/5 6/12/6
f 4/7/7 3/8/8 5/3/3 1/2/2
f 5/3/3 3/8/8 11/17/9 7/9/10
f 7/9/10 8/10/11 9/4/4 5/3/3
f 8/10/11 12/20/12 10/11/5 9/4/4
f 10/11/5 12/20/12 17/29/13 21/21/14
f 6/12/6 10/11/5 21/21/14 16/22/15
f 19/15/16 18/16/17 3/8/8 4/7/7
f 11/17/9 3/8/8 18/96/17
f 1/2/2 2/1/1 14/5/18 13/6/19
f 2/1/1 6/12/6 15/13/20 14/5/18
f 13/6/19 22/14/21 4/7/7 1/2/2
f 39/94/22 11/17/9 18/96/17
f 7/9/10 11/17/9 39/94/22 24/18/23
f 24/18/23 25/19/24 8/10/11 7/9/10
f 8/10/11 25/19/24 20/26/25
f 6/12/6 16/22/15 26/35/26 15/13/20
f 4/7/7 22/14/21 46/95/27 19/15/16
f 8/10/11 20/26/25 28/30/28 29/27/29
f 29/27/29 27/28/30 12/20/12 8/10/11
f 17/29/13 12/20/12 27/28/30 31/31/31
f 17/29/13 31/31/31 32/32/32
f 22/14/21 13/6/19 23/23/33 35/24/34
f 23/23/33 13/6/19 14/5/18 36/46/35
f 25/19/24 24/18/23 40/93/36 60/92/37
f 20/26/25 25/19/24 60/92/37 45/82/38
f 28/30/28 20/26/25 45/82/38 37/75/39
f 16/22/15 21/21/14 30/42/40 33/37/41
f 21/21/14 17/29/13 32/32/32 30/42/40
f 34/72/42 18/73/17 19/33/16 46/34/27
f 24/18/23 39/94/22 40/93/36
f 29/27/29 28/30/28 37/75/39 53/71/43
f 31/31/31 53/71/43 57/69/44
f 31/31/31 57/69/44 32/32/32
f 54/74/45 39/25/22 18/73/17 34/72/42
f 43/53/46 46/95/27 22/14/21 35/24/34
f 35/24/34 23/23/33 36/46/35 43/53/46
f 41/39/47 36/46/35 14/5/18 15/13/20
f 16/22/15 33/37/41 49/38/48 26/35/26
f 33/37/41 30/42/40 42/50/49 38/43/50
f 39/25/22 54/74/45 47/84/51 40/93/36
f 41/39/47 15/13/20 26/35/26 48/40/52
f 32/32/32 57/69/44 42/50/49
f 44/49/53 43/53/46 36/46/35 41/39/47
f 48/40/52 26/35/26 49/38/48 50/45/54
f 41/39/47 48/40/52 52/48/55 44/49/53
f 33/37/41 38/43/50 51/54/56 49/38/48
f 51/44/56 38/43/50 42/50/49
f 59/52/57 52/48/55 48/40/52 50/45/54
f 45/82/38 60/92/37 66/90/58 37/75/39
f 53/71/43 37/75/39 66/90/58 72/70/59
f 55/57/60 46/61/27 43/53/46 44/49/53
f 49/38/48 51/54/56 56/36/61 50/45/54
f 72/70/59 73/68/62 57/69/44 53/71/43
f 73/68/62 42/50/49 57/69/44
f 34/72/42 58/76/63 61/79/64 54/74/45
f 58/76/63 34/72/42 46/34/27 55/77/60
f 62/56/65 55/57/60 44/49/53 52/48/55
f 47/84/51 54/74/45 61/79/64 64/85/66
f 50/45/54 56/36/61 65/41/67 59/52/57
f 60/92/37 40/93/36 70/91/68 66/90/58
f 56/51/61 51/44/56 71/58/69
f 58/76/63 55/77/60 62/80/65 67/81/70
f 74/83/71 61/79/64 58/76/63 67/81/70
f 47/84/51 64/85/66 68/88/72 63/89/73
f 64/85/66 61/79/64 74/83/71 68/88/72
f 47/84/51 63/89/73 69/78/74 40/93/36
f 40/93/36 69/78/74 70/91/68
f 75/60/75 62/56/65 52/48/55 59/52/57
f 63/89/73 68/88/72 76/62/76 69/78/74
f 56/51/61 71/58/69 77/63/77 65/59/67
f 70/91/68 78/67/78 72/70/59 66/90/58
f 73/68/62 77/63/77 71/58/69
f 73/68/62 72/70/59 78/67/78 79/66/79
f 67/81/70 62/80/65 75/86/75 80/87/80
f 76/62/76 68/88/72 74/83/71 81/55/81
f 69/78/74 76/62/76 78/67/78 70/91/68
f 76/62/76 81/55/81 79/66/79 78/67/78
f 74/83/71 67/81/70 80/87/80 81/55/81
f 82/47/82 75/60/75 59/52/57 65/41/67
f 75/86/75 82/64/82 83/65/83 80/87/80
f 65/59/67 77/63/77 83/65/83 82/64/82
f 73/68/62 79/66/79 83/65/83 77/63/77
f 83/65/83 79/66/79 81/55/81 80/87/80
f 27/28/30 29/27/29 53/71/43
f 32/32/32 42/50/49 30/42/40
f 51/44/56 42/50/49 73/68/62
f 71/58/69 51/44/56 73/68/62
f 27/28/30 53/71/43 31/31/31
